<svg width="80" height="80" viewBox="0 0 80 80" fill="none" xmlns="http://www.w3.org/2000/svg">
<mask id="mask0" mask-type="alpha" maskUnits="userSpaceOnUse" x="0" y="0" width="80" height="80">
<path d="M40 80C62.0914 80 80 62.0914 80 40C80 17.9086 62.0914 0 40 0C17.9086 0 0 17.9086 0 40C0 62.0914 17.9086 80 40 80Z" fill="white"/>
</mask>
<g mask="url(#mask0)">
<path d="M40 80C62.0914 80 80 62.0914 80 40C80 17.9086 62.0914 0 40 0C17.9086 0 0 17.9086 0 40C0 62.0914 17.9086 80 40 80Z" fill="#ECF2FF"/>
<path d="M40 40C48.2843 40 55 33.2843 55 25C55 16.7157 48.2843 10 40 10C31.7157 10 25 16.7157 25 25C25 33.2843 31.7157 40 40 40Z" fill="#506FFF"/>
<path d="M40.5 113C59.0015 113 74 98.0015 74 79.5C74 60.9985 59.0015 46 40.5 46C21.9985 46 7 60.9985 7 79.5C7 98.0015 21.9985 113 40.5 113Z" fill="#506FFF"/>
</g>
</svg>
