<svg width="104" height="68" viewBox="0 0 104 68" fill="none" xmlns="http://www.w3.org/2000/svg">
<rect width="96" height="30" transform="translate(0.945435 12) rotate(-7)" fill="white"/>
<path d="M23.518 17.1273L23.9007 20.2439L20.1092 20.7094L21.4522 31.6473L17.5614 32.125L16.2184 21.1871L12.4666 21.6478L12.0839 18.5312L23.518 17.1273ZM29.3603 16.1883C30.6836 16.0258 31.9261 16.1889 33.0877 16.6777C34.2608 17.1515 35.2259 17.8995 35.9827 18.9216C36.7528 19.942 37.2224 21.1404 37.3914 22.5167C37.5604 23.893 37.3947 25.1694 36.8943 26.3458C36.3939 27.5222 35.6327 28.4889 34.6107 29.2457C33.6003 29.9877 32.44 30.4392 31.1298 30.6C29.8196 30.7609 28.578 30.6044 27.4048 30.1305C26.23 29.6434 25.2576 28.8896 24.4875 27.8692C23.7174 26.8488 23.2478 25.6504 23.0788 24.2741C22.9098 22.8977 23.0755 21.6213 23.5759 20.4449C24.0763 19.2685 24.8383 18.3085 25.8619 17.5649C26.884 16.808 28.0501 16.3491 29.3603 16.1883ZM29.8039 19.8011C28.8113 19.923 28.0703 20.3431 27.5809 21.0614C27.0898 21.7665 26.9125 22.6749 27.049 23.7866C27.1823 24.8718 27.5732 25.7036 28.2219 26.2822C28.8706 26.8608 29.6912 27.0892 30.6838 26.9673C31.6631 26.8471 32.3974 26.4278 32.8869 25.7095C33.3763 24.9911 33.5544 24.0894 33.4212 23.0042C33.2847 21.8925 32.8929 21.054 32.2458 20.4887C31.6104 19.9084 30.7964 19.6793 29.8039 19.8011ZM49.859 20.9859C50.0263 22.349 49.8781 23.603 49.4142 24.7481C48.9486 25.88 48.204 26.8177 47.1804 27.5613C46.1567 28.3049 44.9038 28.7678 43.4215 28.9498L37.8236 29.6371L36.0979 15.5826L41.6959 14.8953C43.1781 14.7133 44.505 14.8526 45.6765 15.3133C46.8596 15.7591 47.8074 16.4756 48.5196 17.4628C49.2452 18.4484 49.6916 19.6228 49.859 20.9859ZM42.6353 25.4999C43.7866 25.3585 44.6549 24.9362 45.2403 24.2329C45.8256 23.5297 46.0484 22.609 45.9086 21.4709C45.7705 20.346 45.3324 19.5132 44.5944 18.9725C43.8547 18.4185 42.9091 18.2122 41.7578 18.3535L40.4278 18.5168L41.3052 25.6632L42.6353 25.4999ZM58.8813 24.6738L53.8987 25.2856L53.4121 27.7231L49.303 28.2276L52.726 13.6014L57.2322 13.0481L64.0721 26.4142L59.9431 26.9212L58.8813 24.6738ZM57.5479 21.8553L55.4786 17.4748L54.5107 22.2282L57.5479 21.8553ZM74.1369 10.912L70.3515 21.1094L70.8999 25.5758L67.0091 26.0536L66.4607 21.5871L60.3207 12.6085L64.7872 12.06L67.9266 17.1151L69.73 11.4531L74.1369 10.912ZM75.4582 7.70712C75.865 8.50349 76.1195 9.31854 76.2219 10.1523C76.3405 11.1184 76.1792 11.9375 75.7378 12.6096C75.308 13.2669 74.5969 13.6564 73.6043 13.7783L73.4313 12.3689C74.1459 12.2811 74.4455 11.7675 74.3302 10.8279L74.296 10.5499L72.9462 10.7157L72.6196 8.05567L75.4582 7.70712ZM87.8088 19.389C87.9047 20.1698 87.7931 20.9022 87.4741 21.5862C87.1551 22.2702 86.6345 22.8446 85.9124 23.3094C85.1904 23.7742 84.2934 24.0724 83.2214 24.204C81.5936 24.4039 80.2025 24.1784 79.0479 23.5276C77.9065 22.8751 77.201 21.8334 76.9312 20.4022L81.08 19.8928C81.1799 20.3776 81.3767 20.7229 81.6707 20.9286C81.9646 21.1343 82.3035 21.2136 82.6872 21.1665C83.0313 21.1242 83.2854 21.0057 83.4496 20.8109C83.627 20.6145 83.6962 20.3575 83.6572 20.0398C83.6052 19.6164 83.3735 19.3157 82.9621 19.1378C82.549 18.9467 81.9086 18.7634 81.0407 18.5879C80.1167 18.3924 79.3456 18.1848 78.7276 17.9651C78.1228 17.7439 77.5729 17.3681 77.0779 16.8378C76.5962 16.3059 76.2992 15.5833 76.1871 14.6702C76.0799 13.7968 76.213 13.0214 76.5866 12.3442C76.9586 11.6537 77.5154 11.1017 78.2572 10.6882C78.9974 10.2615 79.8638 9.98721 80.8563 9.86534C82.4709 9.6671 83.8017 9.89327 84.8488 10.5438C85.9075 11.1796 86.5676 12.1799 86.8293 13.5449L82.6407 14.0591C82.5342 13.6289 82.3554 13.3218 82.1044 13.1376C81.8667 12.9519 81.5692 12.881 81.2118 12.9248C80.9075 12.9622 80.679 13.0708 80.5265 13.2508C80.3739 13.4307 80.3171 13.6795 80.3561 13.9971C80.4049 14.3941 80.6284 14.6824 81.0265 14.8618C81.4379 15.0397 82.0643 15.218 82.9057 15.3968C83.8314 15.6056 84.6041 15.8264 85.2237 16.0593C85.8434 16.2921 86.4007 16.6737 86.8957 17.204C87.3907 17.7343 87.6951 18.4627 87.8088 19.389Z" fill="#FD467D"/>
<rect width="62" height="30" transform="translate(20.9873 35.7344) rotate(-7)" fill="#FD467D"/>
<path d="M44.905 50.8522C45.0009 51.633 44.8893 52.3654 44.5703 53.0493C44.2513 53.7333 43.7307 54.3077 43.0087 54.7725C42.2866 55.2373 41.3896 55.5355 40.3176 55.6671C38.6899 55.867 37.2987 55.6415 36.1441 54.9907C35.0027 54.3383 34.2972 53.2965 34.0274 51.8654L38.1763 51.356C38.2761 51.8407 38.473 52.186 38.7669 52.3917C39.0608 52.5974 39.3997 52.6767 39.7835 52.6296C40.1276 52.5873 40.3817 52.4688 40.5458 52.274C40.7232 52.0776 40.7924 51.8206 40.7534 51.503C40.7014 51.0795 40.4697 50.7788 40.0583 50.601C39.6453 50.4099 39.0048 50.2266 38.1369 50.051C37.2129 49.8555 36.4419 49.6479 35.8238 49.4283C35.219 49.207 34.6691 48.8312 34.1741 48.3009C33.6924 47.769 33.3954 47.0465 33.2833 46.1333C33.1761 45.2599 33.3092 44.4845 33.6828 43.8073C34.0548 43.1168 34.6117 42.5648 35.3535 42.1514C36.0937 41.7246 36.96 41.4503 37.9526 41.3285C39.5671 41.1302 40.8979 41.3564 41.945 42.007C43.0037 42.6427 43.6639 43.643 43.9255 45.008L39.737 45.5223C39.6304 45.092 39.4516 44.7849 39.2007 44.6008C38.9629 44.415 38.6654 44.3441 38.3081 44.388C38.0037 44.4253 37.7752 44.534 37.6227 44.7139C37.4701 44.8938 37.4134 45.1426 37.4524 45.4602C37.5011 45.8572 37.7246 46.1455 38.1228 46.325C38.5342 46.5028 39.1606 46.6812 40.002 46.8599C40.9276 47.0687 41.7003 47.2895 42.32 47.5224C42.9396 47.7553 43.497 48.1369 43.9919 48.6672C44.4869 49.1975 44.7913 49.9258 44.905 50.8522ZM53.5167 51.5277L48.5341 52.1395L48.0475 54.577L43.9384 55.0815L47.3614 40.4553L51.8676 39.902L58.7075 53.2681L54.5785 53.7751L53.5167 51.5277ZM52.1833 48.7092L50.114 44.3287L49.1461 49.0821L52.1833 48.7092ZM61.2218 49.957L65.6088 49.4183L65.972 52.3761L57.6743 53.3949L55.9486 39.3405L59.8593 38.8603L61.2218 49.957ZM67.8287 41.0454L68.1139 43.3679L72.6598 42.8098L73.0229 45.7676L68.4771 46.3257L68.7891 48.8666L73.9304 48.2354L74.3131 51.352L65.2611 52.4634L63.5354 38.4089L72.5874 37.2975L72.9701 40.4141L67.8287 41.0454Z" fill="white"/>
</svg>
